<svg width="283" height="283" viewBox="0 0 283 283" fill="none" xmlns="http://www.w3.org/2000/svg">
<g clip-path="url(#clip0_2_315)">
<path opacity="0.21" d="M141.5 283.008C219.648 283.008 283 219.655 283 141.504C283 63.3536 219.648 0 141.5 0C63.3517 0 0 63.3536 0 141.504C0 219.655 63.3517 283.008 141.5 283.008Z" fill="black"/>
<path d="M129.804 198.585C161.331 198.585 186.889 173.033 186.889 141.512C186.889 109.992 161.331 84.4399 129.804 84.4399C98.2777 84.4399 72.7202 109.992 72.7202 141.512C72.7202 173.033 98.2777 198.585 129.804 198.585Z" fill="#010101"/>
<path d="M131.9 267.818C202.026 267.818 258.874 210.982 258.874 140.87C258.874 70.7585 202.026 13.9219 131.9 13.9219C61.7736 13.9219 4.92529 70.7585 4.92529 140.87C4.92529 210.982 61.7736 267.818 131.9 267.818Z" fill="white"/>
<path d="M130.222 247.261C188.872 247.261 236.418 199.725 236.418 141.087C236.418 82.4483 188.872 34.9126 130.222 34.9126C71.5714 34.9126 24.0259 82.4483 24.0259 141.087C24.0259 199.725 71.5714 247.261 130.222 247.261Z" fill="#1A1A1A" stroke="black" stroke-width="0.8" stroke-linecap="round" stroke-linejoin="round"/>
<path d="M130.222 240.968C185.165 240.968 229.706 196.436 229.706 141.504C229.706 86.5719 185.165 42.0405 130.222 42.0405C75.2781 42.0405 30.7375 86.5719 30.7375 141.504C30.7375 196.436 75.2781 240.968 130.222 240.968Z" fill="#010101"/>
<path d="M130.222 247.261C188.872 247.261 236.418 199.725 236.418 141.087C236.418 82.4483 188.872 34.9126 130.222 34.9126C71.5714 34.9126 24.0259 82.4483 24.0259 141.087C24.0259 199.725 71.5714 247.261 130.222 247.261Z" stroke="black" stroke-width="0.8" stroke-linecap="round" stroke-linejoin="round"/>
<path d="M130.222 240.968C185.165 240.968 229.706 196.436 229.706 141.504C229.706 86.5719 185.165 42.0405 130.222 42.0405C75.2781 42.0405 30.7375 86.5719 30.7375 141.504C30.7375 196.436 75.2781 240.968 130.222 240.968Z" stroke="black" stroke-width="0.75" stroke-linecap="round" stroke-linejoin="round"/>
<path d="M129.804 198.585C161.331 198.585 186.889 173.033 186.889 141.512C186.889 109.992 161.331 84.4399 129.804 84.4399C98.2777 84.4399 72.7202 109.992 72.7202 141.512C72.7202 173.033 98.2777 198.585 129.804 198.585Z" fill="#0F1C2D" stroke="#008C8C" stroke-miterlimit="10"/>
<path d="M129.454 171.259C145.886 171.259 159.206 157.941 159.206 141.513C159.206 125.084 145.886 111.766 129.454 111.766C113.022 111.766 99.7012 125.084 99.7012 141.513C99.7012 157.941 113.022 171.259 129.454 171.259Z" fill="#010002"/>
<path d="M129.804 170.049C145.568 170.049 158.346 157.273 158.346 141.513C158.346 125.753 145.568 112.977 129.804 112.977C114.041 112.977 101.262 125.753 101.262 141.513C101.262 157.273 114.041 170.049 129.804 170.049Z" fill="#112945"/>
<path d="M130.013 164.381C142.881 164.381 153.313 153.952 153.313 141.087C153.313 128.221 142.881 117.792 130.013 117.792C117.145 117.792 106.714 128.221 106.714 141.087C106.714 153.952 117.145 164.381 130.013 164.381Z" fill="#001121"/>
<path d="M130.222 247.261C188.872 247.261 236.418 199.725 236.418 141.087C236.418 82.4483 188.872 34.9126 130.222 34.9126C71.5714 34.9126 24.0259 82.4483 24.0259 141.087C24.0259 199.725 71.5714 247.261 130.222 247.261Z" stroke="black" stroke-width="0.8" stroke-linecap="round" stroke-linejoin="round"/>
<path d="M130.222 240.968C185.165 240.968 229.706 196.436 229.706 141.504C229.706 86.5719 185.165 42.0405 130.222 42.0405C75.2781 42.0405 30.7375 86.5719 30.7375 141.504C30.7375 196.436 75.2781 240.968 130.222 240.968Z" stroke="black" stroke-width="0.75" stroke-linecap="round" stroke-linejoin="round"/>
<path d="M129.804 198.585C161.331 198.585 186.889 173.033 186.889 141.512C186.889 109.992 161.331 84.4399 129.804 84.4399C98.2777 84.4399 72.7202 109.992 72.7202 141.512C72.7202 173.033 98.2777 198.585 129.804 198.585Z" stroke="black" stroke-width="0.79" stroke-linecap="round" stroke-linejoin="round"/>
<path d="M129.804 170.049C145.568 170.049 158.346 157.273 158.346 141.513C158.346 125.753 145.568 112.977 129.804 112.977C114.041 112.977 101.262 125.753 101.262 141.513C101.262 157.273 114.041 170.049 129.804 170.049Z" stroke="#008C8C" stroke-width="0.42" stroke-linecap="round" stroke-linejoin="round"/>
<path d="M130.013 164.381C142.881 164.381 153.313 153.952 153.313 141.087C153.313 128.221 142.881 117.792 130.013 117.792C117.145 117.792 106.714 128.221 106.714 141.087C106.714 153.952 117.145 164.381 130.013 164.381Z" stroke="#007373" stroke-width="0.34" stroke-linecap="round" stroke-linejoin="round"/>
<path d="M129.956 159.595C140.56 159.538 149.111 151.121 149.056 140.796C149 130.471 140.358 122.147 129.754 122.204C119.15 122.262 110.599 130.678 110.655 141.004C110.711 151.329 119.352 159.653 129.956 159.595Z" stroke="#00FFFF" stroke-width="0.76" stroke-miterlimit="10"/>
<path d="M130.222 247.261C188.872 247.261 236.418 199.725 236.418 141.087C236.418 82.4483 188.872 34.9126 130.222 34.9126C71.5714 34.9126 24.0259 82.4483 24.0259 141.087C24.0259 199.725 71.5714 247.261 130.222 247.261Z" stroke="#999999" stroke-width="2" stroke-linecap="round" stroke-linejoin="round"/>
<path d="M130.222 240.968C185.165 240.968 229.706 196.436 229.706 141.504C229.706 86.5719 185.165 42.0405 130.222 42.0405C75.2781 42.0405 30.7375 86.5719 30.7375 141.504C30.7375 196.436 75.2781 240.968 130.222 240.968Z" stroke="black" stroke-width="0.75" stroke-linecap="round" stroke-linejoin="round"/>
<path d="M186.888 141.195C186.951 152.483 183.664 163.536 177.444 172.957C171.223 182.377 162.348 189.741 151.941 194.119C141.534 198.496 130.062 199.689 118.977 197.548C107.891 195.407 97.6898 190.027 89.6625 182.089C81.6353 174.151 76.1428 164.011 73.8796 152.952C71.6164 141.893 72.6842 130.411 76.9479 119.959C81.2116 109.507 88.4797 100.553 97.8331 94.2311C107.187 87.9087 118.205 84.5015 129.495 84.4402C161.043 84.3401 186.813 109.98 186.888 141.195Z" stroke="black" stroke-width="0.79" stroke-linecap="round" stroke-linejoin="round"/>
<path d="M121.49 162.754C117.323 148.541 117.442 133.415 121.832 119.27L121.49 162.754Z" fill="#00FFFF"/>
<path d="M139.822 163.789C144.325 149.678 144.569 134.553 140.523 120.304L139.822 163.789Z" fill="#00FFFF"/>
</g>
<defs>
<clipPath id="clip0_2_315">
<rect width="283" height="283" fill="white"/>
</clipPath>
</defs>
</svg>
