<svg width="25" height="24" viewBox="0 0 25 24" fill="none" xmlns="http://www.w3.org/2000/svg">
<path d="M24.3287 9.6403H23.3709V9.59096H12.6701V14.3469H19.3896C18.4093 17.1154 15.7751 19.1028 12.6701 19.1028C8.7304 19.1028 5.5362 15.9086 5.5362 11.9689C5.5362 8.02923 8.7304 4.83503 12.6701 4.83503C14.4886 4.83503 16.1431 5.52107 17.4028 6.64169L20.7659 3.27865C18.6423 1.29959 15.8019 0.0791016 12.6701 0.0791016C6.10394 0.0791016 0.780273 5.40277 0.780273 11.9689C0.780273 18.5351 6.10394 23.8587 12.6701 23.8587C19.2362 23.8587 24.5599 18.5351 24.5599 11.9689C24.5599 11.1717 24.4779 10.3935 24.3287 9.6403V9.6403Z" fill="#FFC107"/>
<path d="M2.15137 6.4348L6.05777 9.29966C7.11477 6.68271 9.67465 4.83503 12.6703 4.83503C14.4888 4.83503 16.1433 5.52107 17.403 6.64169L20.7661 3.27865C18.6425 1.29959 15.8021 0.0791016 12.6703 0.0791016C8.10341 0.0791016 4.14291 2.65741 2.15137 6.4348V6.4348Z" fill="#FF3D00"/>
<path d="M12.6699 23.8587C15.741 23.8587 18.5316 22.6833 20.6414 20.7721L16.9615 17.6581C15.7678 18.5623 14.2839 19.1027 12.6699 19.1027C9.57733 19.1027 6.95146 17.1308 5.96223 14.3789L2.08496 17.3662C4.05273 21.2167 8.04889 23.8587 12.6699 23.8587V23.8587Z" fill="#4CAF50"/>
<path d="M24.3285 9.64065H23.3708V9.59131H12.6699V14.3472H19.3895C18.9186 15.6771 18.0631 16.8239 16.9598 17.6591C16.9604 17.6585 16.961 17.6586 16.9616 17.658L20.6415 20.7719C20.3811 21.0085 24.5597 17.9142 24.5597 11.9693C24.5597 11.1721 24.4777 10.3939 24.3285 9.64065V9.64065Z" fill="#1976D2"/>
</svg>
