<svg width="137" height="137" viewBox="0 0 137 137" fill="none" xmlns="http://www.w3.org/2000/svg">
<g clip-path="url(#clip0_2_90)">
<path opacity="0.21" d="M68.5 137.004C106.332 137.004 137 106.335 137 68.502C137 30.6694 106.332 0 68.5 0C30.6685 0 0 30.6694 0 68.502C0 106.335 30.6685 137.004 68.5 137.004Z" fill="black"/>
<path d="M62.838 96.1348C78.1001 96.1348 90.4724 83.765 90.4724 68.5061C90.4724 53.2472 78.1001 40.8774 62.838 40.8774C47.576 40.8774 35.2036 53.2472 35.2036 68.5061C35.2036 83.765 47.576 96.1348 62.838 96.1348Z" fill="#010101"/>
<path d="M63.8524 129.65C97.8003 129.65 125.321 102.136 125.321 68.1947C125.321 34.2538 97.8003 6.73926 63.8524 6.73926C29.9045 6.73926 2.38428 34.2538 2.38428 68.1947C2.38428 102.136 29.9045 129.65 63.8524 129.65Z" fill="white"/>
<path d="M63.0402 119.699C91.4328 119.699 114.45 96.6868 114.45 68.3001C114.45 39.9134 91.4328 16.9014 63.0402 16.9014C34.6476 16.9014 11.6309 39.9134 11.6309 68.3001C11.6309 96.6868 34.6476 119.699 63.0402 119.699Z" fill="#1A1A1A" stroke="black" stroke-width="0.8" stroke-linecap="round" stroke-linejoin="round"/>
<path d="M63.04 116.652C89.6381 116.652 111.2 95.0949 111.2 68.5023C111.2 41.9096 89.6381 20.3521 63.04 20.3521C36.4419 20.3521 14.8799 41.9096 14.8799 68.5023C14.8799 95.0949 36.4419 116.652 63.04 116.652Z" fill="#010101"/>
<path d="M63.0402 119.699C91.4328 119.699 114.45 96.6868 114.45 68.3001C114.45 39.9134 91.4328 16.9014 63.0402 16.9014C34.6476 16.9014 11.6309 39.9134 11.6309 68.3001C11.6309 96.6868 34.6476 119.699 63.0402 119.699Z" stroke="black" stroke-width="0.8" stroke-linecap="round" stroke-linejoin="round"/>
<path d="M63.04 116.652C89.6381 116.652 111.2 95.0949 111.2 68.5023C111.2 41.9096 89.6381 20.3521 63.04 20.3521C36.4419 20.3521 14.8799 41.9096 14.8799 68.5023C14.8799 95.0949 36.4419 116.652 63.04 116.652Z" stroke="black" stroke-width="0.75" stroke-linecap="round" stroke-linejoin="round"/>
<path d="M62.838 96.1348C78.1001 96.1348 90.4724 83.765 90.4724 68.5061C90.4724 53.2472 78.1001 40.8774 62.838 40.8774C47.576 40.8774 35.2036 53.2472 35.2036 68.5061C35.2036 83.765 47.576 96.1348 62.838 96.1348Z" fill="#0F1C2D" stroke="#008C8C" stroke-miterlimit="10"/>
<path d="M62.6683 82.9064C70.623 82.9064 77.0715 76.4592 77.0715 68.5062C77.0715 60.5532 70.623 54.106 62.6683 54.106C54.7137 54.106 48.2651 60.5532 48.2651 68.5062C48.2651 76.4592 54.7137 82.9064 62.6683 82.9064Z" fill="#010002"/>
<path d="M62.8382 82.3206C70.4692 82.3206 76.6554 76.1357 76.6554 68.5062C76.6554 60.8768 70.4692 54.6919 62.8382 54.6919C55.2072 54.6919 49.021 60.8768 49.021 68.5062C49.021 76.1357 55.2072 82.3206 62.8382 82.3206Z" fill="#112945"/>
<path d="M62.9394 79.5768C69.1688 79.5768 74.2187 74.528 74.2187 68.2999C74.2187 62.0718 69.1688 57.0229 62.9394 57.0229C56.7101 57.0229 51.6602 62.0718 51.6602 68.2999C51.6602 74.528 56.7101 79.5768 62.9394 79.5768Z" fill="#001121"/>
<path d="M63.0402 119.699C91.4328 119.699 114.45 96.6868 114.45 68.3001C114.45 39.9134 91.4328 16.9014 63.0402 16.9014C34.6476 16.9014 11.6309 39.9134 11.6309 68.3001C11.6309 96.6868 34.6476 119.699 63.0402 119.699Z" stroke="black" stroke-width="0.8" stroke-linecap="round" stroke-linejoin="round"/>
<path d="M63.04 116.652C89.6381 116.652 111.2 95.0949 111.2 68.5023C111.2 41.9096 89.6381 20.3521 63.04 20.3521C36.4419 20.3521 14.8799 41.9096 14.8799 68.5023C14.8799 95.0949 36.4419 116.652 63.04 116.652Z" stroke="black" stroke-width="0.75" stroke-linecap="round" stroke-linejoin="round"/>
<path d="M62.838 96.1348C78.1001 96.1348 90.4724 83.765 90.4724 68.5061C90.4724 53.2472 78.1001 40.8774 62.838 40.8774C47.576 40.8774 35.2036 53.2472 35.2036 68.5061C35.2036 83.765 47.576 96.1348 62.838 96.1348Z" stroke="black" stroke-width="0.79" stroke-linecap="round" stroke-linejoin="round"/>
<path d="M62.8382 82.3206C70.4692 82.3206 76.6554 76.1357 76.6554 68.5062C76.6554 60.8768 70.4692 54.6919 62.8382 54.6919C55.2072 54.6919 49.021 60.8768 49.021 68.5062C49.021 76.1357 55.2072 82.3206 62.8382 82.3206Z" stroke="#008C8C" stroke-width="0.42" stroke-linecap="round" stroke-linejoin="round"/>
<path d="M62.9394 79.5768C69.1688 79.5768 74.2187 74.528 74.2187 68.2999C74.2187 62.0718 69.1688 57.0229 62.9394 57.0229C56.7101 57.0229 51.6602 62.0718 51.6602 68.2999C51.6602 74.528 56.7101 79.5768 62.9394 79.5768Z" stroke="#007373" stroke-width="0.34" stroke-linecap="round" stroke-linejoin="round"/>
<path d="M62.9118 77.2597C68.0453 77.2319 72.1848 73.1574 72.1577 68.1589C72.1307 63.1605 67.9473 59.1309 62.8139 59.1587C57.6805 59.1865 53.541 63.261 53.568 68.2595C53.5951 73.2579 57.7784 77.2875 62.9118 77.2597Z" stroke="#00FFFF" stroke-width="0.76" stroke-miterlimit="10"/>
<path d="M63.0402 119.699C91.4328 119.699 114.45 96.6868 114.45 68.3001C114.45 39.9134 91.4328 16.9014 63.0402 16.9014C34.6476 16.9014 11.6309 39.9134 11.6309 68.3001C11.6309 96.6868 34.6476 119.699 63.0402 119.699Z" stroke="#999999" stroke-width="2" stroke-linecap="round" stroke-linejoin="round"/>
<path d="M63.04 116.652C89.6381 116.652 111.2 95.0949 111.2 68.5023C111.2 41.9096 89.6381 20.3521 63.04 20.3521C36.4419 20.3521 14.8799 41.9096 14.8799 68.5023C14.8799 95.0949 36.4419 116.652 63.04 116.652Z" stroke="black" stroke-width="0.75" stroke-linecap="round" stroke-linejoin="round"/>
<path d="M90.4725 68.3527C90.5028 73.8172 88.9116 79.168 85.9002 83.7283C82.8888 88.2887 78.5924 91.8538 73.5543 93.9728C68.5163 96.0918 62.9629 96.6695 57.5964 95.6329C52.23 94.5963 47.2915 91.9919 43.4055 88.1491C39.5195 84.3064 36.8606 79.3978 35.765 74.0441C34.6694 68.6904 35.1863 63.1322 37.2503 58.0722C39.3144 53.0123 42.8329 48.6779 47.3609 45.6173C51.8889 42.5567 57.2229 40.9072 62.6886 40.8776C77.9606 40.8291 90.4361 53.2414 90.4725 68.3527Z" stroke="black" stroke-width="0.79" stroke-linecap="round" stroke-linejoin="round"/>
<path d="M58.8129 78.7891C56.7958 71.9086 56.8535 64.5862 58.9786 57.7383L58.8129 78.7891Z" fill="#00FFFF"/>
<path d="M67.6875 79.2901C69.8674 72.459 69.9854 65.1371 68.027 58.2393L67.6875 79.2901Z" fill="#00FFFF"/>
</g>
<defs>
<clipPath id="clip0_2_90">
<rect width="137" height="137" fill="white"/>
</clipPath>
</defs>
</svg>
