<svg width="29" height="29" viewBox="0 0 29 29" fill="none" xmlns="http://www.w3.org/2000/svg">
<path d="M26.1882 22.4184C25.4114 21.7259 24.7313 20.9321 24.1663 20.0582C23.5494 18.8519 23.1797 17.5345 23.0788 16.1834V12.204C23.0841 10.0818 22.3143 8.03079 20.914 6.43619C19.5137 4.84159 17.5794 3.81321 15.4743 3.54427V2.5051C15.4743 2.21989 15.361 1.94635 15.1593 1.74467C14.9577 1.54299 14.6841 1.42969 14.3989 1.42969C14.1137 1.42969 13.8401 1.54299 13.6385 1.74467C13.4368 1.94635 13.3235 2.21989 13.3235 2.5051V3.56038C11.2373 3.84871 9.3263 4.88331 7.94441 6.47255C6.56253 8.06179 5.80341 10.098 5.80765 12.204V16.1834C5.70676 17.5345 5.33703 18.8519 4.72015 20.0582C4.16503 20.9301 3.49587 21.7238 2.73043 22.4184C2.6445 22.4939 2.57564 22.5868 2.52841 22.691C2.48119 22.7952 2.45669 22.9082 2.45654 23.0226V24.1182C2.45654 24.3318 2.54141 24.5367 2.69248 24.6878C2.84356 24.8388 3.04845 24.9237 3.2621 24.9237H25.6565C25.8702 24.9237 26.0751 24.8388 26.2262 24.6878C26.3772 24.5367 26.4621 24.3318 26.4621 24.1182V23.0226C26.462 22.9082 26.4375 22.7952 26.3902 22.691C26.343 22.5868 26.2741 22.4939 26.1882 22.4184ZM4.1321 23.3126C4.88159 22.5886 5.5415 21.7772 6.09765 20.8959C6.8747 19.4391 7.32808 17.8316 7.42682 16.1834V12.204C7.39487 11.2599 7.55323 10.3191 7.89247 9.43745C8.2317 8.55584 8.74488 7.75151 9.40144 7.07236C10.058 6.39321 10.8445 5.85313 11.7141 5.48427C12.5838 5.11541 13.5187 4.92532 14.4633 4.92532C15.408 4.92532 16.3429 5.11541 17.2126 5.48427C18.0822 5.85313 18.8687 6.39321 19.5253 7.07236C20.1818 7.75151 20.695 8.55584 21.0342 9.43745C21.3735 10.3191 21.5318 11.2599 21.4999 12.204V16.1834C21.5986 17.8316 22.052 19.4391 22.829 20.8959C23.3852 21.7772 24.0451 22.5886 24.7946 23.3126H4.1321Z" fill="#DA6D1D"/>
<path d="M14.5007 27.6145C15.0081 27.6028 15.4951 27.412 15.8754 27.0759C16.2558 26.7398 16.505 26.28 16.579 25.7778H12.3418C12.4179 26.2936 12.6788 26.7642 13.0759 27.1021C13.473 27.4399 13.9793 27.622 14.5007 27.6145V27.6145Z" fill="#DA6D1D"/>
</svg>
